<svg width="22" height="22" viewBox="0 0 22 22" fill="none" xmlns="http://www.w3.org/2000/svg">
<path d="M6 9V21M14 4.88L13 9H18.83C19.1405 9 19.4467 9.07229 19.7244 9.21115C20.0021 9.35 20.2437 9.55161 20.43 9.8C20.6163 10.0484 20.7422 10.3367 20.7977 10.6422C20.8533 10.9477 20.8369 11.2619 20.75 11.56L18.42 19.56C18.2988 19.9754 18.0462 20.3404 17.7 20.6C17.3538 20.8596 16.9327 21 16.5 21H3C2.46957 21 1.96086 20.7893 1.58579 20.4142C1.21071 20.0391 1 19.5304 1 19V11C1 10.4696 1.21071 9.96086 1.58579 9.58579C1.96086 9.21071 2.46957 9 3 9H5.76C6.13208 8.9998 6.49674 8.89581 6.81296 8.69972C7.12917 8.50363 7.38442 8.22321 7.55 7.89L11 1C11.4716 1.00584 11.9357 1.11817 12.3578 1.3286C12.7799 1.53902 13.1489 1.84211 13.4374 2.2152C13.7259 2.5883 13.9263 3.02176 14.0237 3.4832C14.1212 3.94464 14.113 4.42213 14 4.88Z" stroke="#93C9FF" stroke-width="2" stroke-linecap="round" stroke-linejoin="round"/>
</svg>
